<svg version="1.1" id="Layer_1" xmlns="http://www.w3.org/2000/svg" xmlns:xlink="http://www.w3.org/1999/xlink" x="0px" y="0px" viewBox="0 0 1200 1200" enable-background="new 0 0 1200 1200" xml:space="preserve">
<g>
	<path fill="#F29681" d="M430.372,506.673c7.379,3.309,14.304,7.628,20.522,12.799c5.842,4.857,11.404,11.287,11.349,18.884&#xA;&#9;&#9;c-0.017,2.423-0.617,4.8-1.213,7.149c-1.083,4.269-2.167,8.538-3.25,12.807c-0.75,2.956-1.54,5.998-3.368,8.44&#xA;&#9;&#9;c-3.962,5.293-12.763,5.945-17.462,1.293c-1.239-1.227-2.234-3.068-1.543-4.669c0.234-0.543,0.645-1.005,0.821-1.57&#xA;&#9;&#9;c0.679-2.186-2.189-3.594-4.326-4.413c-4.754-1.823-8.712-5.629-10.718-10.308c-2.583-6.025-2.462-13.898-7.889-17.574&#xA;&#9;&#9;c-0.995-0.674-2.192-1.223-2.692-2.316c-0.504-1.101-0.123-2.392,0.346-3.509c2.024-4.821,5.664-8.947,10.196-11.556"/>
	<path fill="#F29681" d="M832.358,215.253c17.546-6.464,35.092-12.927,52.638-19.391c6.038-2.224,12.15-4.467,18.546-5.174&#xA;&#9;&#9;c1.344,2.152-0.644,4.829-2.63,6.409c-2.301,1.83-4.803,3.407-7.448,4.692c-2.155,1.047-4.47,1.948-6.115,3.689&#xA;&#9;&#9;c-3.947,4.181-2.356,10.892-3.363,16.552c-1.371,7.711-7.966,13.662-15.273,16.481c-7.307,2.819-15.315,3.057-23.144,3.261&#xA;&#9;&#9;c-4.726,0.123-9.453,0.246-14.179,0.369c-1.7,0.044-3.477,0.072-5.002-0.68c-2.864-1.413-3.82-4.982-4.233-8.148&#xA;&#9;&#9;c-0.349-2.671-0.526-5.437,0.26-8.013c0.786-2.576,2.712-4.948,5.327-5.593"/>
	<path fill="#E8E5DE" d="M548.67,240.165c56.705-1.99,113.547-3.991,169.69-12.201c30.442-4.452,60.596-10.719,90.51-17.906&#xA;&#9;&#9;c9.987-2.399,21.868-4.454,29.395,2.534c6.417,5.958,6.652,15.859,6.43,24.613c-0.186,7.345-0.544,15.212-4.935,21.103&#xA;&#9;&#9;c-3.526,4.731-9.125,7.415-14.65,9.487c-10.131,3.799-20.74,6.14-31.333,8.344c-39.531,8.226-79.423,14.721-119.522,19.461&#xA;&#9;&#9;c-22.14,2.617-44.394,4.701-66.687,4.431c-7.504-0.091-15.204-0.492-22.084-3.488c-17.778-7.739-24.115-29.22-36.048-44.502"/>
	<ellipse fill="#D3E4ED" cx="519.796" cy="1138.761" rx="201.73" ry="11.239"/>
	<path fill="#31353E" d="M544.76,1040.028c0.311,16.51,0.623,33.02,0.934,49.53c0.23,12.217,0.461,24.433,0.691,36.65&#xA;&#9;&#9;c0.023,1.233,0.077,2.555,0.838,3.544c0.994,1.291,2.837,1.58,4.49,1.752c3.813,0.398,7.634,0.719,11.458,1.004&#xA;&#9;&#9;c27.127,2.027,54.393,2.305,81.558,0.831c4.961-0.269,10.153-0.667,14.356-3.235c0.329-0.201,0.67-0.438,0.797-0.794&#xA;&#9;&#9;c0.253-0.704-0.435-1.371-1.059-1.807c-5.997-4.199-12.919-6.96-19.802-9.593c-12.211-4.671-24.536-9.064-36.96-13.174&#xA;&#9;&#9;c-1.363-0.451-2.783-0.932-3.782-1.937c-1.225-1.234-1.616-3.06-2.764-4.362c-0.807-0.915-1.941-1.516-2.741-2.436&#xA;&#9;&#9;c-1.386-1.595-1.543-3.845-1.607-5.928c-0.507-16.515,0.855-33.084,4.053-49.314c0.342-1.735,0.66-3.692-0.394-5.134&#xA;&#9;&#9;c-0.784-1.072-2.14-1.577-3.424-1.999c-12.098-3.978-24.988-5.684-37.745-4.996"/>
	<path fill="#31353E" d="M416.466,1039.775c-0.389,11.056-0.777,22.112-1.166,33.167c-0.116,3.295-0.234,6.608-0.878,9.837&#xA;&#9;&#9;c-0.83,4.163-2.513,8.087-4.111,12.008c-3.785,9.287-7.151,18.751-10.086,28.353c-1.958,6.406-3.741,13.015-3.409,19.722&#xA;&#9;&#9;c18.645,1.633,37.416,1.72,56.066,0.258c2.116-0.166,4.431-0.445,5.889-2.011c1.172-1.258,1.523-3.087,1.634-4.819&#xA;&#9;&#9;c0.587-9.169-4.073-17.877-4.828-27.038c-0.381-4.619,0.24-9.252,0.859-13.841c2.069-15.326,4.138-30.652,6.206-45.978&#xA;&#9;&#9;c0.131-0.971,0.258-1.986-0.062-2.912c-0.413-1.193-1.482-2.006-2.509-2.719c-10.74-7.467-23.176-12.382-36.037-14.242"/>
	<path fill="#969593" d="M637.581,1068.258c-2.16,2.995-5.763,4.653-9.274,5.996c-20.146,7.704-42.809,8.898-63.785,3.753&#xA;&#9;&#9;c-6.913-1.692-13.645-4.075-20.043-7.141c-3.741-1.791-7.504-3.923-9.824-7.283c-2.767-4.013-3.31-9.108-3.224-13.932&#xA;&#9;&#9;c0.898-49.328,4.342-91.126,4.763-143.969c0.121-15.262,0.46-35.146,0.268-52.323c-0.006-0.597-0.374-0.984-0.827-1.132&#xA;&#9;&#9;c-0.658-0.217-1.498,0.071-1.658,0.931c-12.673,68.176-35.11,141.711-46.511,209.188c-0.54,3.187-1.099,6.438-2.652,9.297&#xA;&#9;&#9;c-2.409,4.43-6.926,7.407-11.53,9.687c-27.388,13.56-64.044,6.216-83.627-16.756c-2-2.345-3.856-4.873-4.856-7.753&#xA;&#9;&#9;c-1.546-4.461-0.904-9.325-0.246-13.987c24.673-174.883,47.633-349.989,70.593-525.092c1.204-9.195,1.01-24.151,2.722-38.302&#xA;&#9;&#9;c1.377-11.367,3.99-22.217,9.555-29.138c1.214-1.516,2.575-2.84,4.092-3.945c17.794-12.929,61.725-2.039,81.506,1.624&#xA;&#9;&#9;c3.307,0.613,6.757,1.371,9.91,2.583c15.207-13.567,35.739-19.299,53.051-1.918c0.633,0.634,1.23,1.29,1.792,1.965&#xA;&#9;&#9;c8.543,10.2,9.699,24.844,10.114,37.915c0.077,2.404,0.131,4.755,0.198,7.014c0.783,25.93,1.109,51.881,1.664,77.817&#xA;&#9;&#9;c2.188,102.425,4.38,204.853,6.568,307.282c1.249,58.344,2.495,116.688,3.744,175.035&#xA;&#9;&#9;C640.159,1060.019,640.153,1064.694,637.581,1068.258z"/>
	<path fill="#683E48" d="M498.578,236.23c-16.907,11.745-34.685,22.708-53.214,32.813c-7.318,3.991-14.892,7.95-20.31,13.519&#xA;&#9;&#9;c-12.348,12.693-10.767,30.422-7.948,46.273c8.061,45.315,21.426,89.939,36.256,134.175c3.023,9.016,0.996,19.473,3.535,28.581&#xA;&#9;&#9;c0.736,2.641,1.582,5.322,3.412,7.608c4.426,5.528,13.344,7.444,21.48,8.668c18.962,2.851,38.203,4.367,57.435,5.677&#xA;&#9;&#9;c23.367,1.592,47.433,2.828,69.802-2.739c4.107-1.022,8.201-2.303,11.524-4.465c7.4-4.815,9.591-12.951,10.622-20.479&#xA;&#9;&#9;c7.918-57.801-4.482-119.821-16.498-176.324c-4.283-20.14-7.137-40.76-23.504-54.948&#xA;&#9;&#9;C566.365,233.084,529.047,236.767,498.578,236.23z"/>
	<g>
		<path fill="#894F58" d="M576.251,510.137c-0.036-0.002-0.052-0.547-0.047-1.657c0.017-1.111,0.043-2.787,0.078-5.051&#xA;&#9;&#9;&#9;c0.026-1.132,0.055-2.411,0.088-3.84c0.04-1.428,0.08-3.007,0.076-4.738c0.008-3.463,0.076-7.536,0.063-12.242&#xA;&#9;&#9;&#9;c-0.169-18.801-0.717-47.837-6.276-87.97c-2.802-20.054-6.152-37.105-9.383-51.392c-0.196-0.894-0.39-1.779-0.582-2.652&#xA;&#9;&#9;&#9;c-0.209-0.87-0.415-1.73-0.619-2.579c-0.407-1.699-0.805-3.357-1.193-4.974c-0.388-1.618-0.765-3.195-1.133-4.732&#xA;&#9;&#9;&#9;c-0.397-1.53-0.784-3.02-1.161-4.47c-0.756-2.899-1.472-5.641-2.146-8.226c-0.724-2.572-1.404-4.989-2.042-7.254&#xA;&#9;&#9;&#9;c-1.276-4.529-2.342-8.465-3.5-11.714c-1.135-3.259-2.358-5.83-3.51-7.762c-1.166-1.924-2.219-3.228-2.958-4.048&#xA;&#9;&#9;&#9;c-0.741-0.819-1.128-1.204-1.098-1.236c0.012-0.013,0.122,0.068,0.331,0.247c0.204,0.185,0.533,0.442,0.919,0.846&#xA;&#9;&#9;&#9;c0.795,0.781,1.914,2.06,3.149,3.979c1.221,1.926,2.515,4.509,3.712,7.777c1.22,3.263,2.336,7.188,3.659,11.708&#xA;&#9;&#9;&#9;c0.658,2.262,1.361,4.676,2.109,7.245c0.694,2.584,1.429,5.324,2.207,8.222c0.386,1.45,0.782,2.94,1.189,4.469&#xA;&#9;&#9;&#9;c0.377,1.537,0.763,3.115,1.159,4.733c0.396,1.618,0.802,3.277,1.217,4.976c0.208,0.85,0.418,1.71,0.63,2.58&#xA;&#9;&#9;&#9;c0.195,0.874,0.393,1.759,0.592,2.654c3.287,14.298,6.671,31.372,9.478,51.459c5.568,40.201,6.002,69.294,5.983,88.115&#xA;&#9;&#9;&#9;c-0.034,4.711-0.154,8.788-0.217,12.253c-0.024,1.733-0.093,3.312-0.162,4.74c-0.066,1.429-0.126,2.708-0.179,3.839&#xA;&#9;&#9;&#9;c-0.122,2.262-0.213,3.936-0.273,5.046C576.34,509.596,576.286,510.138,576.251,510.137z"/>
	</g>
	<g>
		<path fill="#894F58" d="M502.351,311.511c-0.001-0.081,1.002-0.144,3.085-0.302c2.082-0.158,5.245-0.41,9.549-0.958&#xA;&#9;&#9;&#9;c4.306-0.538,9.745-1.402,16.417-2.543c6.674-1.131,14.585-2.441,23.791-4.076c18.413-3.266,31.44-6.252,39.852-8.413&#xA;&#9;&#9;&#9;c2.106-0.53,3.925-1.005,5.467-1.424c1.547-0.403,2.818-0.745,3.826-1.023c2.019-0.543,3.001-0.768,3.022-0.7&#xA;&#9;&#9;&#9;c0.021,0.068-0.92,0.423-2.906,1.086c-0.991,0.338-2.248,0.737-3.783,1.193c-1.53,0.473-3.339,0.999-5.437,1.575&#xA;&#9;&#9;&#9;c-8.381,2.348-21.423,5.456-39.857,8.726c-9.216,1.637-17.135,2.919-23.817,3.998c-6.681,1.089-12.154,1.882-16.488,2.328&#xA;&#9;&#9;&#9;c-4.334,0.456-7.52,0.598-9.615,0.633c-1.048,0.019-1.824,0.006-2.337-0.016C502.603,311.576,502.351,311.547,502.351,311.511z"/>
	</g>
	<path fill="#E8E5DE" d="M474.392,283.809c2.738,5.247,6.736,9.721,10.876,13.951c7.169,7.325,14.897,14.102,23.095,20.254&#xA;&#9;&#9;c0.982,0.737,2.105,1.502,3.322,1.349c1.104-0.138,1.967-1.001,2.661-1.871c4.05-5.073,5.378-11.733,6.582-18.112&#xA;&#9;&#9;c0.858-4.548,1.716-9.097,2.574-13.645c0.149-0.788,0.319-1.621,0.863-2.21c1.085-1.175,3.01-0.807,4.493-0.207&#xA;&#9;&#9;c11.672,4.721,18.869,17.627,30.959,21.142c3.534,1.027,7.981,0.863,10.115-2.136c0.867-1.218,1.21-2.733,1.353-4.221&#xA;&#9;&#9;c0.717-7.482-3.14-14.609-7.408-20.796c-5.7-8.263-12.536-15.992-21.244-20.984c-8.426-4.83-18.259-6.866-27.971-6.932&#xA;&#9;&#9;c-7.028-0.048-13.812,1.095-20.702,2.317c-3.875,0.687-8.35,0.5-12.013,2.048C470.042,258.788,469.13,273.726,474.392,283.809z"/>
	<path fill="#F29681" d="M537.571,281.346c-3.755,2.501-8.002,4.402-12.518,4.92c-7.753,0.891-16.688-0.75-23.961-3.458&#xA;&#9;&#9;c-2.774-1.033-5.276-2.394-7.504-4.039c-5.027-3.718-8.665-8.904-10.935-15.126c-1.98-5.421-2.94-11.153-3.887-16.85&#xA;&#9;&#9;c-2.723-7.076-2.757-16.574-4.008-24.078c-0.532-3.192-2.723-9.304-1.572-12.386c0.567-1.531,1.956-2.315,4.771-1.634&#xA;&#9;&#9;c4.913,1.189,10.541,5.455,15.534,9.111c1.88,1.379,3.669,2.667,5.297,3.676c7.238,4.481,14.477,8.966,21.715,13.447&#xA;&#9;&#9;c5.925,3.669,11.149,7.452,13.703,14.131c2.574,6.734,7.615,11.999,10.413,18.595c0.207,0.491,0.377,0.964,0.504,1.42&#xA;&#9;&#9;C546.803,274.934,542.373,278.154,537.571,281.346z"/>
	<path fill="#EE7471" d="M545.123,269.074c-1.724,0.705-3.759,0.891-5.649,0.936c-3.614,0.09-7.266-0.059-10.78-0.909&#xA;&#9;&#9;c-7.404-1.79-13.748-6.571-19.134-11.958c-3.953-3.956-7.511-8.302-10.614-12.953c-4.063-6.081-11.004-15.758-7.615-23.484&#xA;&#9;&#9;c0.553-1.265,1.289-2.215,2.159-2.902c1.88,1.379,3.669,2.667,5.297,3.676c7.238,4.481,14.477,8.966,21.715,13.447&#xA;&#9;&#9;c5.925,3.669,11.149,7.452,13.703,14.131c2.574,6.734,7.615,11.999,10.413,18.595C544.826,268.145,544.996,268.618,545.123,269.074&#xA;&#9;&#9;z"/>
	<path fill="#F29681" d="M458.743,177.426c0.611,1.218,1.214,2.443,1.797,3.676c0.296,0.621,0.587,1.244,0.87,1.871&#xA;&#9;&#9;c5.862,12.957,9.259,27.108,18.302,38.398c7.379,9.215,63.938,63.602,82.694,5.14c1.955-6.094-0.588-16.329-1.299-25.818&#xA;&#9;&#9;c-0.97-12.935,1.853-17.326-1.795-29.567c-0.937-3.145-4.104-7.645-5.207-9.44c-3.901-6.346-4.022-14.264-5.796-21.505&#xA;&#9;&#9;c-0.585-2.389-1.185-4.887-1.841-7.424c-0.082-0.32-0.166-0.639-0.25-0.959c-2.424-9.171-5.676-18.745-11.862-25.483&#xA;&#9;&#9;c-5.845-6.373-16.915-10.844-25.23-11.991c-7.898-1.09-15.997,0.004-23.619,2.348c-6.801,2.091-13.336,5.198-18.951,9.57&#xA;&#9;&#9;c-11.686,9.1-18.431,23.832-18.653,38.545C447.719,157.005,453.52,167.01,458.743,177.426z"/>
	<path fill="#31353E" d="M560.419,99.583c2.476-18.136-5.828-38.278-20.44-49.583c1.381,4.637,1.171,9.673-0.581,13.915&#xA;&#9;&#9;c-6.55-5.995-15.161-9.3-23.454-9.002c-0.476,0.017-0.992,0.065-1.314,0.414c-0.359,0.391-0.354,1.03-0.268,1.596&#xA;&#9;&#9;c0.405,2.677,2.07,5.01,3.149,7.518c1.079,2.508,1.429,5.787-0.437,7.446c-4.709-5.311-11.752-8.169-18.265-7.412&#xA;&#9;&#9;c1.984,4.069-1.671,8.147-5.017,10.556c-7.749,5.577-15.853,10.664-24.487,14.672c-8.188,3.801-16.899,6.658-24.292,11.879&#xA;&#9;&#9;c-7.393,5.221-13.494,13.461-13.552,23.211c-0.029,4.904,1.459,9.794,3.216,14.473c3.809,10.147,8.966,19.813,15.259,28.601&#xA;&#9;&#9;c8.478,11.839,18.902,21.963,29.271,31.985c1.748,1.689,3.548,3.414,5.702,4.377s4.771,1.012,6.432-0.511&#xA;&#9;&#9;c-6.63-11.068-13.259-22.136-19.889-33.204c-2.935-4.899-5.98-10.931-3.779-15.857c1.607-3.596,5.472-5.186,9.031-6.496&#xA;&#9;&#9;c19.247-7.084,38.494-14.168,57.741-21.253C547.5,122.104,558.257,115.418,560.419,99.583z"/>
	<path fill="#31353E" d="M423.383,134.282c-4.39,3.898-7.72,9.395-7.65,15.266c0.057,4.737,2.278,9.176,4.84,13.161&#xA;&#9;&#9;c4.93,7.667,11.262,14.32,17.684,20.788c7.005,7.056,14.223,14,22.537,19.452c1.519,0.996,3.142,1.965,4.95,2.144&#xA;&#9;&#9;s3.842-0.662,4.482-2.362c0.385-1.023,0.218-2.162,0.02-3.237c-2.426-13.158-8.639-25.158-14.77-36.908&#xA;&#9;&#9;c-3.151-6.04-6.339-12.071-9.078-18.313c-1.357-3.092-2.612-6.232-3.685-9.434c-0.733-2.187-1.066-5.697-3.039-7.215&#xA;&#9;&#9;C435.158,124.151,426.592,131.433,423.383,134.282z"/>
	<path fill="#F29681" d="M461.325,175.32c-2.813-1.962-6.771-2.611-9.677-0.79c-3.697,2.318-4.328,7.465-3.735,11.788&#xA;&#9;&#9;c0.848,6.183,3.467,12.181,7.778,16.694c4.31,4.513,10.352,7.446,16.591,7.587c1.948,0.044,4.1-0.275,5.377-1.746&#xA;&#9;&#9;c1.781-2.052,1.016-5.201,0.045-7.738C474.398,192.477,469.266,180.858,461.325,175.32z"/>
	<path fill="#31353E" d="M561.474,201.844c-1.49-1.88-3.659-2.961-5.811-3.682c-4.561-1.529-9.419-1.712-13.886-0.523&#xA;&#9;&#9;c-3.362,0.895-6.463,2.535-9.516,4.205c-4.242,2.322-8.588,4.859-11.28,9.069c-4.702,7.352-3.178,17.644-1.193,26.784&#xA;&#9;&#9;c1.053,4.849,2.195,9.712,4.053,14.329c0.586,1.456,1.268,2.922,2.348,4.021c1.324,1.347,3.103,1.996,4.837,2.431&#xA;&#9;&#9;c11.238,2.819,22.476-1.696,31.967-7.728c3.373-2.143,6.792-4.697,8.252-8.651c1.435-3.887,0.717-8.435-0.244-12.671&#xA;&#9;&#9;c-1.215-5.353-3.018-10.454-4.637-15.692C565.134,209.762,564.101,205.159,561.474,201.844z"/>
	<g>
		<path fill="#31353E" d="M532.368,199.096c-0.098-0.269,1.489-1.125,5.053-2.626c1.782-0.751,4.058-1.663,6.864-2.744&#xA;&#9;&#9;&#9;c0.702-0.268,1.436-0.549,2.203-0.842c0.752-0.287,1.48-0.582,2.038-1.009c0.542-0.391,0.939-1.021,0.965-1.561&#xA;&#9;&#9;&#9;c0.014-0.263-0.053-0.496-0.236-0.801c-0.183-0.298-0.478-0.62-0.833-0.967c-1.434-1.41-2.91-2.62-4.275-3.777&#xA;&#9;&#9;&#9;c-1.371-1.151-2.623-2.27-3.716-3.327c-2.192-2.118-3.82-3.999-5.03-5.531c-2.407-3.081-3.195-4.729-2.981-4.884&#xA;&#9;&#9;&#9;c0.247-0.184,1.45,1.149,4.087,3.922c1.326,1.379,3.023,3.11,5.228,5.097c1.104,0.995,2.329,2.037,3.711,3.162&#xA;&#9;&#9;&#9;c1.376,1.131,2.901,2.358,4.432,3.862c0.383,0.38,0.799,0.804,1.142,1.361c0.345,0.544,0.585,1.294,0.529,2.001&#xA;&#9;&#9;&#9;c-0.115,1.409-0.929,2.423-1.812,3.072c-0.883,0.641-1.786,0.955-2.568,1.238c-0.777,0.271-1.52,0.53-2.23,0.778&#xA;&#9;&#9;&#9;c-2.842,0.983-5.17,1.753-7.016,2.327C534.232,198.996,532.466,199.365,532.368,199.096z"/>
	</g>
	<g>
		<path fill="#31353E" d="M488.56,170.656c-0.127-0.066-0.139-0.327-0.017-0.802c0.112-0.481,0.384-1.161,0.839-2.055&#xA;&#9;&#9;&#9;c0.231-0.444,0.525-0.93,0.855-1.477c0.363-0.523,0.739-1.128,1.233-1.734c0.952-1.238,2.197-2.626,3.836-4.04&#xA;&#9;&#9;&#9;c1.639-1.414,3.195-2.441,4.559-3.201c0.671-0.399,1.325-0.682,1.896-0.965c0.59-0.246,1.114-0.465,1.587-0.629&#xA;&#9;&#9;&#9;c0.951-0.318,1.664-0.488,2.156-0.527c0.488-0.05,0.744-0.001,0.79,0.135c0.047,0.135-0.119,0.343-0.509,0.621&#xA;&#9;&#9;&#9;c-0.394,0.268-1,0.636-1.831,1.106c-0.412,0.241-0.878,0.514-1.401,0.819c-0.506,0.333-1.094,0.653-1.7,1.073&#xA;&#9;&#9;&#9;c-1.233,0.804-2.657,1.811-4.195,3.137c-1.538,1.326-2.744,2.587-3.719,3.688c-0.505,0.537-0.908,1.072-1.312,1.524&#xA;&#9;&#9;&#9;c-0.379,0.472-0.717,0.893-1.016,1.265c-0.587,0.753-1.04,1.298-1.363,1.649C488.917,170.589,488.687,170.723,488.56,170.656z"/>
	</g>
	<g>
		<path fill="#31353E" d="M547.313,146.976c-0.146,0.038-0.3-0.103-0.582-0.189c-0.288-0.103-0.731-0.168-1.565-0.256&#xA;&#9;&#9;&#9;c-1.58-0.19-3.99-0.572-7.367-0.367c-3.375,0.228-5.722,0.896-7.27,1.274c-1.543,0.409-2.314,0.554-2.451,0.284&#xA;&#9;&#9;&#9;c-0.123-0.239,0.422-0.855,1.923-1.651c1.499-0.762,3.999-1.729,7.668-1.976c3.67-0.223,6.275,0.437,7.854,1.014&#xA;&#9;&#9;&#9;c0.759,0.258,1.471,0.627,1.755,1.085C547.577,146.658,547.437,146.959,547.313,146.976z"/>
	</g>
	
		<ellipse transform="matrix(0.9053 -0.4247 0.4247 0.9053 -35.2596 235.1643)" fill="#FABCAA" cx="509.833" cy="196.668" rx="7.396" ry="3.94"/>
	
		<ellipse transform="matrix(0.9663 -0.2573 0.2573 0.9663 -26.8418 147.0592)" fill="#FABCAA" cx="548.501" cy="176.094" rx="6.778" ry="3.94"/>
	<path fill="#EE7471" d="M537.991,191.298c0.218,0.303,0.439,0.619,0.509,0.986c0.098,0.511-0.117,1.034-0.405,1.467&#xA;&#9;&#9;c-1.172,1.762-3.46,2.444-5.576,2.468c-0.136,0.002-0.276,0-0.399-0.057c-0.154-0.071-0.258-0.218-0.349-0.362&#xA;&#9;&#9;c-1.311-2.083-1.335-4.69-1.884-7.088c-0.161-0.703-0.37-1.401-0.406-2.121c-0.036-0.72,0.125-1.484,0.615-2.013&#xA;&#9;&#9;c1.477-1.595,2.83,0.272,3.715,1.331C535.27,187.653,536.664,189.452,537.991,191.298z"/>
	<path fill="#EE7471" d="M463.663,199.234c-0.191-0.199-0.357-0.443-0.372-0.719c-0.029-0.557,0.531-0.93,0.948-1.301&#xA;&#9;&#9;c0.77-0.684,1.207-1.726,1.155-2.755c-0.772-0.109-1.543-0.218-2.315-0.327c-0.3-0.042-0.64-0.109-0.797-0.368&#xA;&#9;&#9;c-0.1-0.165-0.1-0.371-0.077-0.562c0.079-0.649,0.389-1.245,0.571-1.873c0.182-0.628,0.212-1.368-0.204-1.873&#xA;&#9;&#9;c-0.245-0.297-0.609-0.467-0.893-0.727c-0.409-0.375-0.625-0.91-0.828-1.426c-0.351-0.889-0.701-1.777-1.052-2.666&#xA;&#9;&#9;c-0.394-1-0.871-2.09-1.845-2.544c-0.685-0.319-1.483-0.252-2.226-0.115c-1.895,0.348-3.831,1.207-4.822,2.86&#xA;&#9;&#9;c-0.088,0.148-0.171,0.317-0.136,0.485c0.086,0.409,0.677,0.382,1.075,0.253c0.768-0.25,1.537-0.499,2.305-0.749&#xA;&#9;&#9;c0.738-0.24,1.583-0.47,2.253-0.08c0.688,0.4,0.902,1.308,0.829,2.1c-0.073,0.792-0.363,1.555-0.405,2.349s0.251,1.697,0.981,2.014&#xA;&#9;&#9;c0.52,0.226,1.208,0.138,1.57,0.574c0.336,0.405,0.179,1.003,0.103,1.524c-0.191,1.308,0.299,2.696,1.269,3.595&#xA;&#9;&#9;c0.177,0.164,0.372,0.317,0.485,0.529c0.165,0.31,0.124,0.684,0.175,1.031c0.141,0.966,1.015,1.695,1.953,1.966&#xA;&#9;&#9;c0.615,0.178,1.842,0.43,2.353-0.053C465.056,199.992,464.247,199.844,463.663,199.234z"/>
	<path fill="#E8E5DE" d="M317.243,390.729c-13.182,15.821-24.456,35.788-20.377,56.051c4.61,22.907,24.949,38.649,40.535,54.335&#xA;&#9;&#9;c7.872,7.922,15.822,15.868,24.993,22.24c12.545,8.717,31.563,16.544,46.853,11.077c8.501-3.039,14.572-10.424,20.199-17.483&#xA;&#9;&#9;c3.123-3.917,6.398-8.24,6.462-13.249c0.089-6.961-5.899-12.282-11.339-16.625c-17.563-14.022-35.233-28.22-51.828-43.385&#xA;&#9;&#9;c-5.05-4.661-7.96-10.282-3.746-16.731c1.899-2.907,4.912-4.829,7.488-7.157c31.071-28.076,65.349-48.329,76.226-86.875&#xA;&#9;&#9;c3.98-14.104,4.832-17.528-0.937-30.968c-4.674-10.891-14.673-27.951-27.519-18.043c-17.933,13.832-31.485,31.29-47.146,47.392&#xA;&#9;&#9;c-16.226,16.684-33.845,32.078-50.161,48.728C323.728,383.323,320.43,386.905,317.243,390.729z"/>
	<g>
		<path fill="#31353E" d="M332.651,426.998c-0.344-1.326,0.587-2.891,3.316-3.923c1.357-0.515,3.152-0.879,5.37-0.976&#xA;&#9;&#9;&#9;c2.216-0.102,4.851,0.067,7.842,0.584c1.501,0.261,2.854,0.554,4.136,0.881c1.285,0.328,2.494,0.712,3.569,1.178&#xA;&#9;&#9;&#9;c1.078,0.464,2.008,1.004,2.784,1.593c0.772,0.587,1.366,1.203,1.822,1.787c0.917,1.172,1.27,2.199,1.425,2.857&#xA;&#9;&#9;&#9;c0.146,0.668,0.12,0.993,0.061,1.006c-0.078,0.02-0.192-0.28-0.527-0.814c-0.337-0.526-0.926-1.29-1.978-1.967&#xA;&#9;&#9;&#9;c-1.046-0.691-2.507-1.22-4.41-1.345c-0.95-0.071-2.006-0.051-3.194,0.021c-1.193,0.074-2.522,0.185-3.912,0.322&#xA;&#9;&#9;&#9;c-2.792,0.279-5.125,0.611-7.083,0.832c-1.958,0.222-3.547,0.333-4.84,0.275c-1.291-0.055-2.291-0.289-3.022-0.684&#xA;&#9;&#9;&#9;C333.281,428.234,332.82,427.668,332.651,426.998z"/>
	</g>
	<g>
		<path fill="#31353E" d="M353.609,408.831c0.087-0.267,0.345-0.455,0.804-0.526c0.228-0.033,0.511-0.046,0.837-0.007&#xA;&#9;&#9;&#9;c0.321,0.05,0.693,0.137,1.115,0.267c0.415,0.14,0.864,0.352,1.365,0.599c0.471,0.291,1.021,0.588,1.543,1.023&#xA;&#9;&#9;&#9;c0.547,0.406,1.086,0.918,1.649,1.491c0.263,0.303,0.537,0.618,0.822,0.945c0.256,0.348,0.522,0.71,0.797,1.085&#xA;&#9;&#9;&#9;c0.243,0.394,0.478,0.774,0.703,1.141c0.196,0.381,0.384,0.748,0.566,1.101c0.321,0.725,0.597,1.393,0.785,2.028&#xA;&#9;&#9;&#9;c0.223,0.619,0.321,1.217,0.454,1.731c0.082,0.532,0.164,0.998,0.204,1.413c0.023,0.414,0.044,0.773,0.061,1.08&#xA;&#9;&#9;&#9;c0,0.305-0.02,0.558-0.035,0.757c-0.034,0.398-0.081,0.587-0.152,0.592c-0.071,0.006-0.161-0.174-0.283-0.544&#xA;&#9;&#9;&#9;c-0.057-0.188-0.128-0.418-0.213-0.696c-0.097-0.276-0.21-0.599-0.341-0.97c-0.139-0.367-0.324-0.774-0.51-1.229&#xA;&#9;&#9;&#9;c-0.237-0.439-0.441-0.942-0.763-1.45c-0.287-0.523-0.657-1.061-1.053-1.637c-0.213-0.277-0.435-0.565-0.665-0.864&#xA;&#9;&#9;&#9;c-0.246-0.283-0.502-0.577-0.767-0.882c-0.281-0.286-0.552-0.563-0.813-0.829c-0.274-0.25-0.537-0.49-0.79-0.721&#xA;&#9;&#9;&#9;c-0.527-0.436-1.002-0.841-1.465-1.175c-0.441-0.365-0.888-0.626-1.252-0.923c-0.392-0.251-0.726-0.508-1.027-0.729&#xA;&#9;&#9;&#9;c-0.306-0.21-0.565-0.416-0.779-0.616c-0.219-0.188-0.398-0.357-0.53-0.529C353.612,409.416,353.522,409.097,353.609,408.831z"/>
	</g>
	<g>
		<path fill="#31353E" d="M705.596,261.518c-0.035,0.008-0.082-0.037-0.29-0.104c-0.104-0.034-0.249-0.073-0.451-0.115&#xA;&#9;&#9;&#9;c-0.206-0.041-0.357-0.11-0.598-0.176c-0.493-0.128-1.065-0.308-1.411-0.607c-0.315-0.306-0.606-0.688-0.899-1.141&#xA;&#9;&#9;&#9;c-1.131-1.807-2.095-4.894-1.748-9.284c0.095-1.094,0.249-2.106,0.451-3.036c0.211-0.93,0.436-1.776,0.704-2.543&#xA;&#9;&#9;&#9;c0.239-0.767,0.532-1.453,0.773-2.066c0.273-0.612,0.505-1.151,0.736-1.621c0.453-0.941,0.805-1.611,1.031-2.052&#xA;&#9;&#9;&#9;c0.222-0.44,0.325-0.65,0.393-0.642c0.068,0.008,0.122,0.238,0.242,0.713c0.114,0.474,0.331,1.196,0.623,2.162&#xA;&#9;&#9;&#9;c0.3,0.967,0.701,2.179,1.138,3.624c0.224,0.723,0.451,1.504,0.671,2.344c0.229,0.84,0.445,1.739,0.647,2.702&#xA;&#9;&#9;&#9;c0.21,0.962,0.367,1.85,0.481,2.675c0.121,0.824,0.184,1.586,0.221,2.288c0.06,1.406-0.028,2.582-0.24,3.552&#xA;&#9;&#9;&#9;c-0.103,0.484-0.229,0.915-0.405,1.299c-0.199,0.388-0.638,0.773-1.031,1.094c-0.191,0.159-0.298,0.285-0.466,0.411&#xA;&#9;&#9;&#9;c-0.164,0.125-0.277,0.224-0.357,0.3C705.653,261.448,705.63,261.51,705.596,261.518z"/>
	</g>
	<g>
		<path fill="#31353E" d="M534.902,850.966c-2.084-0.188-3.08-9.889-2.018-30.614c0.535-10.364,1.562-23.497,3.36-39.583&#xA;&#9;&#9;&#9;c1.82-16.08,4.367-35.129,8.44-57.181c2.063-11.013,4.11-21.233,6.559-30.638c2.432-9.396,5.245-17.932,8.483-25.475&#xA;&#9;&#9;&#9;c3.242-7.572,6.903-14.013,10.291-19.725c3.415-5.703,6.687-10.634,9.708-14.879c3.026-4.241,5.781-7.814,8.286-10.718&#xA;&#9;&#9;&#9;c2.462-2.937,4.683-5.189,6.479-6.931c1.85-1.69,3.246-2.909,4.266-3.597c0.497-0.356,0.868-0.622,1.115-0.799&#xA;&#9;&#9;&#9;c0.249-0.172,0.377-0.25,0.387-0.235c0.01,0.014-0.097,0.122-0.324,0.323c-0.23,0.198-0.575,0.494-1.037,0.892&#xA;&#9;&#9;&#9;c-0.959,0.75-2.277,2.042-4.011,3.814c-1.683,1.826-3.753,4.173-6.02,7.222c-2.308,3.013-4.821,6.714-7.548,11.092&#xA;&#9;&#9;&#9;c-2.723,4.381-5.639,9.461-8.633,15.3c-2.969,5.848-6.133,12.41-8.758,19.881c-2.642,7.489-4.82,15.911-6.612,25.211&#xA;&#9;&#9;&#9;c-1.807,9.292-3.22,19.505-4.659,30.516c-2.819,22.021-4.542,40.992-6.107,57.004c-1.536,16.016-2.862,29.084-4.207,39.364&#xA;&#9;&#9;&#9;C539.688,841.775,536.988,851.154,534.902,850.966z"/>
	</g>
	<g>
		<path fill="#31353E" d="M407.908,978.626c0.456-1.31,1.925-2.24,4.241-2.666c0.58-0.109,1.233-0.246,1.93-0.323&#xA;&#9;&#9;&#9;c0.702-0.095,1.446-0.11,2.268-0.182c0.821-0.072,1.698-0.115,2.632-0.125c0.938-0.032,1.948-0.103,3.011-0.105&#xA;&#9;&#9;&#9;c1.064-0.007,2.208-0.112,3.408-0.118c1.203-0.063,2.479-0.13,3.829-0.2c2.698-0.228,5.692-0.448,8.997-0.965&#xA;&#9;&#9;&#9;c6.583-1.022,14.507-2.789,23.279-6.658c8.815-3.903,15.943-8.631,21.71-12.978c2.899-2.168,5.408-4.319,7.674-6.268&#xA;&#9;&#9;&#9;c2.231-1.987,4.186-3.81,5.866-5.465c1.684-1.652,3.101-3.127,4.297-4.391c1.186-1.273,2.148-2.337,2.908-3.185&#xA;&#9;&#9;&#9;c1.501-1.712,2.216-2.543,2.273-2.501c0.057,0.043-0.544,0.956-1.782,2.876c-0.633,0.953-1.429,2.153-2.396,3.609&#xA;&#9;&#9;&#9;c-0.983,1.448-2.14,3.156-3.522,5.104c-1.378,1.952-2.987,4.139-4.848,6.573c-1.899,2.399-4.014,5.079-6.547,7.883&#xA;&#9;&#9;&#9;c-2.523,2.812-5.401,5.811-8.775,8.871c-3.372,3.059-7.257,6.165-11.766,9.131c-4.542,2.969-9.07,5.308-13.447,7.081&#xA;&#9;&#9;&#9;c-4.376,1.778-8.594,3.001-12.534,3.809c-3.943,0.813-7.626,1.098-10.941,1.16c-1.663-0.026-3.235-0.073-4.713-0.21&#xA;&#9;&#9;&#9;c-1.479-0.185-2.864-0.321-4.148-0.602c-1.284-0.286-2.474-0.548-3.561-0.889c-1.085-0.364-2.073-0.733-2.965-1.105&#xA;&#9;&#9;&#9;c-0.892-0.372-1.675-0.835-2.373-1.242c-0.695-0.426-1.305-0.817-1.813-1.257C408.07,981.512,407.452,979.935,407.908,978.626z"/>
	</g>
	<g>
		<path fill="#31353E" d="M613.671,949.32c-1.45,2.792-5.342,3.988-11.692,1.947c-1.589-0.511-3.334-1.235-5.232-2.186&#xA;&#9;&#9;&#9;c-1.896-0.973-3.949-2.152-6.131-3.649c-4.346-2.979-9.308-7.088-14.17-12.822c-4.893-5.775-8.001-11.479-10.047-16.409&#xA;&#9;&#9;&#9;c-1.028-2.469-1.738-4.785-2.312-6.859c-0.255-1.052-0.496-2.037-0.686-2.972c-0.16-0.946-0.351-1.813-0.455-2.643&#xA;&#9;&#9;&#9;c-0.1-0.831-0.217-1.594-0.286-2.308c-0.055-0.713-0.106-1.372-0.153-1.978c-0.057-1.21-0.075-2.2-0.086-2.981&#xA;&#9;&#9;&#9;c0.047-1.569,0.054-2.307,0.125-2.312c0.071-0.005,0.205,0.733,0.519,2.238c0.191,0.747,0.442,1.685,0.799,2.796&#xA;&#9;&#9;&#9;c0.2,0.548,0.417,1.145,0.653,1.791c0.252,0.637,0.568,1.308,0.883,2.026c0.319,0.716,0.74,1.451,1.142,2.237&#xA;&#9;&#9;&#9;c0.432,0.776,0.928,1.578,1.445,2.415c1.1,1.651,2.367,3.422,3.938,5.22c3.127,3.595,7.27,7.402,12.569,10.956&#xA;&#9;&#9;&#9;c5.34,3.584,10.243,6.123,14.335,8.46c2.044,1.165,3.922,2.242,5.566,3.308c1.661,1.053,3.105,2.081,4.343,3.086&#xA;&#9;&#9;&#9;c2.472,2.009,4.091,3.949,4.879,5.761C614.417,946.25,614.391,947.92,613.671,949.32z"/>
	</g>
	<g>
		<path fill="#31353E" d="M448.015,583.085c-0.485-1.202-0.338-2.614,0.465-4.087c0.399-0.743,0.975-1.476,1.704-2.256&#xA;&#9;&#9;&#9;c0.715-0.812,1.6-1.636,2.67-2.463c1.055-0.857,2.25-1.803,3.666-2.726c0.679-0.51,1.407-1.027,2.187-1.55&#xA;&#9;&#9;&#9;c0.392-0.258,0.795-0.523,1.207-0.795c0.403-0.287,0.815-0.58,1.237-0.881c0.429-0.292,0.868-0.591,1.317-0.898&#xA;&#9;&#9;&#9;c0.457-0.297,0.92-0.607,1.371-0.953c0.915-0.677,1.9-1.352,2.914-2.08c0.981-0.765,2.018-1.552,3.112-2.367&#xA;&#9;&#9;&#9;c1.054-0.868,2.149-1.769,3.284-2.703c1.1-0.993,2.162-1.952,3.184-2.875c0.986-0.979,1.935-1.92,2.847-2.825&#xA;&#9;&#9;&#9;c0.882-0.938,1.705-1.867,2.519-2.749c0.415-0.436,0.789-0.886,1.146-1.333c0.364-0.445,0.72-0.881,1.067-1.306&#xA;&#9;&#9;&#9;c0.35-0.428,0.692-0.847,1.026-1.255c0.31-0.425,0.613-0.84,0.909-1.245c0.592-0.819,1.155-1.597,1.688-2.334&#xA;&#9;&#9;&#9;c0.968-1.532,1.871-2.902,2.59-4.151c0.683-1.273,1.274-2.376,1.777-3.313c0.466-0.957,0.802-1.767,1.09-2.405&#xA;&#9;&#9;&#9;c0.565-1.279,0.831-1.902,0.899-1.883c0.068,0.019-0.062,0.676-0.323,2.06c-0.137,0.69-0.281,1.571-0.501,2.632&#xA;&#9;&#9;&#9;c-0.249,1.059-0.542,2.304-0.881,3.742c-0.367,1.437-0.863,3.046-1.384,4.89c-0.313,0.902-0.644,1.854-0.991,2.857&#xA;&#9;&#9;&#9;c-0.177,0.504-0.359,1.021-0.545,1.55c-0.213,0.518-0.431,1.048-0.655,1.592c-0.226,0.546-0.457,1.104-0.693,1.675&#xA;&#9;&#9;&#9;c-0.232,0.576-0.482,1.159-0.773,1.735c-0.566,1.161-1.145,2.391-1.794,3.652c-0.7,1.236-1.428,2.522-2.184,3.858&#xA;&#9;&#9;&#9;c-0.827,1.294-1.705,2.633-2.629,4.026c-0.99,1.334-1.956,2.625-2.91,3.858c-1.007,1.181-1.993,2.313-2.955,3.393&#xA;&#9;&#9;&#9;c-0.996,1.043-1.997,2.005-2.955,2.933c-0.473,0.471-0.966,0.898-1.459,1.303c-0.493,0.406-0.974,0.803-1.445,1.191&#xA;&#9;&#9;&#9;c-0.478,0.38-0.944,0.751-1.4,1.113c-0.472,0.342-0.945,0.657-1.405,0.968c-0.922,0.618-1.811,1.185-2.665,1.703&#xA;&#9;&#9;&#9;c-1.77,0.941-3.374,1.725-4.864,2.251c-1.508,0.497-2.855,0.819-4.036,0.981c-1.197,0.131-2.248,0.067-3.119-0.102&#xA;&#9;&#9;&#9;C449.579,585.159,448.5,584.287,448.015,583.085z"/>
	</g>
	<g>
		<path fill="#894F58" d="M470.607,496.265c-0.036,0.003-0.098-0.295-0.189-0.906c-0.091-0.611-0.209-1.536-0.357-2.786&#xA;&#9;&#9;&#9;c-0.285-2.503-0.717-6.303-1.307-11.501c-0.311-2.598-0.663-5.544-1.059-8.852c-0.439-3.303-0.867-6.974-1.438-11.006&#xA;&#9;&#9;&#9;c-1.092-8.07-2.485-17.621-4.366-28.718c-1.881-11.098-3.712-20.574-5.341-28.553c-0.79-3.995-1.595-7.602-2.269-10.865&#xA;&#9;&#9;&#9;c-0.717-3.254-1.355-6.152-1.917-8.707c-1.155-5.103-1.999-8.832-2.555-11.29c-0.273-1.229-0.466-2.141-0.581-2.748&#xA;&#9;&#9;&#9;c-0.116-0.607-0.155-0.909-0.12-0.918c0.035-0.009,0.141,0.276,0.323,0.867c0.181,0.591,0.437,1.487,0.77,2.702&#xA;&#9;&#9;&#9;c0.325,1.218,0.734,2.751,1.23,4.612c0.466,1.869,1.014,4.068,1.648,6.608c0.599,2.549,1.279,5.441,2.043,8.687&#xA;&#9;&#9;&#9;c0.711,3.258,1.549,6.863,2.365,10.857c1.682,7.978,3.545,17.462,5.428,28.573c1.884,11.112,3.25,20.679,4.291,28.766&#xA;&#9;&#9;&#9;c0.545,4.04,0.943,7.719,1.345,11.03c0.349,3.317,0.66,6.271,0.934,8.875c0.239,2.607,0.446,4.864,0.622,6.782&#xA;&#9;&#9;&#9;c0.145,1.921,0.264,3.503,0.358,4.759c0.086,1.257,0.139,2.188,0.163,2.805S470.642,496.262,470.607,496.265z"/>
	</g>
	<g>
		<path fill="#894F58" d="M491.122,498.87c-0.035,0.006-0.132-0.407-0.291-1.256c-0.17-0.848-0.373-2.136-0.614-3.882&#xA;&#9;&#9;&#9;c-0.469-3.493-0.974-8.837-1.174-16.161c-0.108-3.661-0.141-7.816-0.153-12.475c-0.006-4.66-0.024-9.824-0.184-15.51&#xA;&#9;&#9;&#9;c-0.303-11.37-1.052-24.848-2.979-40.455c-0.912-7.809-2.078-15.019-3.189-21.684c-0.625-3.32-1.172-6.518-1.79-9.565&#xA;&#9;&#9;&#9;c-0.64-3.043-1.185-5.969-1.826-8.741c-0.638-2.772-1.194-5.428-1.817-7.935c-0.619-2.508-1.206-4.892-1.763-7.151&#xA;&#9;&#9;&#9;c-1.202-4.496-2.244-8.51-3.284-12.014c-0.51-1.755-0.956-3.401-1.421-4.915c-0.464-1.515-0.892-2.914-1.285-4.2&#xA;&#9;&#9;&#9;c-0.393-1.286-0.751-2.459-1.075-3.521c-0.34-1.056-0.645-2.002-0.914-2.84c-0.535-1.675-0.922-2.919-1.167-3.747&#xA;&#9;&#9;&#9;c-0.245-0.827-0.347-1.239-0.314-1.251c0.034-0.012,0.202,0.377,0.511,1.183c0.309,0.806,0.757,2.029,1.352,3.687&#xA;&#9;&#9;&#9;c0.295,0.83,0.629,1.767,1.001,2.814c0.349,1.055,0.735,2.221,1.158,3.499c0.417,1.281,0.872,2.674,1.363,4.182&#xA;&#9;&#9;&#9;c0.49,1.509,0.96,3.151,1.494,4.902c1.088,3.497,2.172,7.507,3.413,12.003c0.574,2.26,1.18,4.644,1.818,7.153&#xA;&#9;&#9;&#9;c0.64,2.509,1.211,5.168,1.863,7.943c0.655,2.775,1.213,5.706,1.864,8.754c0.629,3.053,1.186,6.256,1.819,9.583&#xA;&#9;&#9;&#9;c1.127,6.679,2.303,13.906,3.218,21.734c1.933,15.646,2.654,29.16,2.905,40.557c0.133,5.701,0.12,10.875,0.088,15.533&#xA;&#9;&#9;&#9;c-0.025,4.659-0.035,8.806,0.026,12.458c0.107,7.306,0.498,12.635,0.842,16.131c0.179,1.748,0.317,3.042,0.42,3.898&#xA;&#9;&#9;&#9;C491.13,498.441,491.157,498.865,491.122,498.87z"/>
	</g>
	<g>
		<path fill="#894F58" d="M532.846,499.686c-0.035,0.005-0.124-0.427-0.269-1.313c-0.145-0.887-0.345-2.229-0.602-4.045&#xA;&#9;&#9;&#9;c-0.494-3.633-1.079-9.18-1.531-16.792c-0.458-7.612-0.646-17.289-0.58-29.15c0.016-11.86,0.401-25.911-0.128-42.269&#xA;&#9;&#9;&#9;c-0.462-16.366-2.377-30.292-4.533-41.931c-2.167-11.642-4.411-21.041-6.2-28.439c-1.83-7.39-3.169-12.792-4.05-16.349&#xA;&#9;&#9;&#9;c-0.437-1.779-0.753-3.097-0.95-3.974c-0.197-0.876-0.276-1.311-0.241-1.32c0.035-0.009,0.181,0.407,0.443,1.266&#xA;&#9;&#9;&#9;c0.262,0.86,0.641,2.161,1.138,3.925c0.991,3.528,2.473,8.895,4.371,16.274c1.882,7.382,4.203,16.777,6.428,28.441&#xA;&#9;&#9;&#9;c1.094,5.835,2.155,12.239,2.975,19.249c0.425,3.504,0.719,7.163,1.045,10.964c0.237,3.806,0.489,7.756,0.61,11.857&#xA;&#9;&#9;&#9;c0.531,16.404,0.116,30.461,0.047,42.311c-0.118,11.852-0.006,21.508,0.357,29.107c0.358,7.598,0.83,13.142,1.2,16.783&#xA;&#9;&#9;&#9;c0.196,1.819,0.331,3.168,0.408,4.063S532.881,499.681,532.846,499.686z"/>
	</g>
	<g>
		<path fill="#894F58" d="M610.285,509.845c-0.018-0.002-0.02-0.157-0.008-0.469c0.019-0.312,0.047-0.779,0.086-1.406&#xA;&#9;&#9;&#9;c0.079-1.255,0.274-3.142,0.388-5.703c0.305-5.114,0.538-12.907,0.141-23.553c-0.216-5.323-0.582-11.356-1.112-18.124&#xA;&#9;&#9;&#9;c-0.524-6.768-1.214-14.271-1.898-22.548c-0.703-8.276-1.281-17.343-1.653-27.205c-0.395-9.862-0.606-20.519-0.99-31.982&#xA;&#9;&#9;&#9;c-0.374-11.463-0.928-22.099-1.837-31.907c-0.918-9.806-2.155-18.784-3.769-26.911c-3.207-16.264-7.66-29.109-12.092-38.77&#xA;&#9;&#9;&#9;c-4.41-9.688-8.627-16.276-11.556-20.466c-0.36-0.529-0.698-1.024-1.011-1.485c-0.317-0.459-0.64-0.862-0.921-1.245&#xA;&#9;&#9;&#9;c-0.567-0.764-1.037-1.397-1.412-1.901c-0.367-0.51-0.64-0.89-0.822-1.144c-0.177-0.257-0.258-0.39-0.244-0.401&#xA;&#9;&#9;&#9;c0.014-0.012,0.122,0.099,0.326,0.334c0.201,0.24,0.501,0.599,0.904,1.081c0.396,0.49,0.894,1.104,1.494,1.844&#xA;&#9;&#9;&#9;c0.295,0.375,0.632,0.77,0.963,1.22c0.327,0.454,0.678,0.941,1.053,1.463c3.04,4.133,7.375,10.694,11.893,20.394&#xA;&#9;&#9;&#9;c4.54,9.673,9.09,22.566,12.362,38.891c1.647,8.157,2.909,17.17,3.843,27.003c0.925,9.835,1.488,20.494,1.862,31.966&#xA;&#9;&#9;&#9;c0.385,11.474,0.588,22.127,0.969,31.978c0.358,9.852,0.914,18.895,1.59,27.167c0.657,8.273,1.315,15.781,1.803,22.56&#xA;&#9;&#9;&#9;c0.494,6.778,0.818,12.827,0.988,18.163c0.304,10.676-0.041,18.49-0.471,23.607c-0.176,2.562-0.436,4.447-0.582,5.697&#xA;&#9;&#9;&#9;c-0.084,0.623-0.146,1.087-0.188,1.397C610.336,509.696,610.303,509.847,610.285,509.845z"/>
	</g>
	<g>
		<path fill="#894F58" d="M626.009,485.488c0.02,0.026-0.277,0.288-0.929,0.767c-0.66,0.465-1.696,1.125-3.195,1.825&#xA;&#9;&#9;&#9;c-1.495,0.704-3.462,1.42-5.907,2.041c-2.446,0.626-5.359,1.167-8.729,1.692c-1.685,0.272-3.483,0.563-5.397,0.873&#xA;&#9;&#9;&#9;c-1.913,0.312-3.957,0.535-6.112,0.829c-4.306,0.612-9.113,1.041-14.405,1.54c-2.652,0.185-5.426,0.379-8.324,0.582&#xA;&#9;&#9;&#9;c-2.903,0.122-5.931,0.25-9.086,0.383c-3.157,0.078-6.442,0.093-9.855,0.144c-3.413-0.049-6.956-0.075-10.628-0.179&#xA;&#9;&#9;&#9;c-29.399-1.023-50.142-5.027-63.473-7.832c-6.661-1.49-11.507-2.678-14.665-3.575c-1.583-0.432-2.753-0.761-3.524-0.991&#xA;&#9;&#9;&#9;c-0.771-0.229-1.144-0.36-1.135-0.394s0.4,0.028,1.188,0.192c0.788,0.164,1.972,0.43,3.569,0.801&#xA;&#9;&#9;&#9;c3.185,0.776,8.05,1.854,14.717,3.25c13.345,2.616,34.044,6.493,63.355,7.513c29.319,0.893,50.214-1.86,63.658-3.858&#xA;&#9;&#9;&#9;c3.374-0.478,6.279-0.966,8.708-1.532c2.431-0.561,4.384-1.21,5.881-1.847C624.719,486.426,625.947,485.391,626.009,485.488z"/>
	</g>
	<g>
		<path fill="#894F58" d="M632.403,447.88c0.008,0.035-0.38,0.156-1.18,0.367c-0.8,0.211-2.012,0.511-3.653,0.905&#xA;&#9;&#9;&#9;c-1.642,0.388-3.708,0.892-6.229,1.45c-2.528,0.523-5.502,1.138-8.938,1.848c-3.443,0.675-7.366,1.357-11.764,2.156&#xA;&#9;&#9;&#9;c-2.208,0.349-4.536,0.716-6.987,1.103c-1.226,0.192-2.482,0.388-3.77,0.589c-1.291,0.175-2.614,0.353-3.967,0.536&#xA;&#9;&#9;&#9;c-10.823,1.498-23.706,2.929-38.787,3.8c-15.081,0.873-28.043,0.937-38.967,0.696c-1.366-0.026-2.7-0.051-4.003-0.075&#xA;&#9;&#9;&#9;c-1.302-0.051-2.573-0.101-3.813-0.15c-2.479-0.102-4.834-0.199-7.067-0.291c-4.461-0.287-8.436-0.512-11.934-0.785&#xA;&#9;&#9;&#9;c-3.495-0.31-6.52-0.578-9.091-0.806c-2.568-0.263-4.678-0.526-6.354-0.722c-1.675-0.201-2.914-0.36-3.733-0.477&#xA;&#9;&#9;&#9;c-0.819-0.117-1.218-0.193-1.214-0.228c0.004-0.036,0.411-0.03,1.237,0.021c0.826,0.05,2.071,0.144,3.751,0.284&#xA;&#9;&#9;&#9;c1.68,0.144,3.796,0.326,6.365,0.546c2.572,0.184,5.597,0.401,9.092,0.652c3.496,0.226,7.468,0.409,11.922,0.658&#xA;&#9;&#9;&#9;c2.23,0.075,4.582,0.155,7.057,0.238c1.238,0.041,2.506,0.083,3.806,0.127c1.301,0.018,2.632,0.036,3.996,0.054&#xA;&#9;&#9;&#9;c10.904,0.188,23.838,0.095,38.889-0.776c15.051-0.87,27.909-2.269,38.719-3.712c1.352-0.175,2.673-0.347,3.963-0.515&#xA;&#9;&#9;&#9;c1.286-0.193,2.542-0.381,3.766-0.565c2.449-0.368,4.776-0.718,6.983-1.05c4.397-0.761,8.32-1.4,11.767-2.028&#xA;&#9;&#9;&#9;c3.443-0.652,6.423-1.216,8.956-1.696c2.526-0.515,4.607-0.939,6.26-1.276c1.653-0.333,2.879-0.569,3.694-0.714&#xA;&#9;&#9;&#9;C631.991,447.898,632.395,447.845,632.403,447.88z"/>
	</g>
	<g>
		<path fill="#894F58" d="M623.665,408.087c0.01,0.035-0.376,0.173-1.174,0.42c-0.798,0.247-2.007,0.603-3.646,1.071&#xA;&#9;&#9;&#9;c-1.64,0.462-3.701,1.061-6.22,1.731c-2.528,0.634-5.502,1.38-8.937,2.241c-3.445,0.824-7.374,1.671-11.777,2.658&#xA;&#9;&#9;&#9;c-2.213,0.44-4.547,0.904-7.004,1.392c-1.229,0.242-2.489,0.49-3.779,0.744c-1.296,0.226-2.623,0.458-3.982,0.695&#xA;&#9;&#9;&#9;c-10.86,1.932-23.804,3.858-38.991,5.259c-15.186,1.402-28.265,1.878-39.294,1.966c-1.379,0.016-2.726,0.031-4.041,0.046&#xA;&#9;&#9;&#9;c-1.315-0.014-2.599-0.027-3.852-0.039c-2.505-0.03-4.884-0.059-7.14-0.086c-4.51-0.164-8.527-0.278-12.065-0.458&#xA;&#9;&#9;&#9;c-3.535-0.218-6.595-0.407-9.196-0.568c-2.598-0.198-4.735-0.41-6.431-0.564c-1.696-0.16-2.95-0.288-3.78-0.385&#xA;&#9;&#9;&#9;c-0.829-0.097-1.234-0.163-1.231-0.198c0.003-0.036,0.414-0.039,1.249-0.01c0.835,0.03,2.094,0.093,3.793,0.191&#xA;&#9;&#9;&#9;c1.699,0.103,3.839,0.231,6.437,0.388c2.6,0.117,5.659,0.255,9.192,0.414c3.534,0.133,7.547,0.204,12.049,0.331&#xA;&#9;&#9;&#9;c2.252,0.011,4.627,0.022,7.128,0.034c1.25,0.006,2.532,0.011,3.845,0.017c1.313-0.022,2.657-0.044,4.033-0.067&#xA;&#9;&#9;&#9;c11.008-0.141,24.056-0.644,39.21-2.043c15.154-1.398,28.074-3.291,38.922-5.168c1.357-0.23,2.683-0.454,3.978-0.673&#xA;&#9;&#9;&#9;c1.29-0.246,2.548-0.486,3.776-0.72c2.456-0.469,4.789-0.915,7.001-1.338c4.403-0.949,8.335-1.753,11.785-2.53&#xA;&#9;&#9;&#9;c3.445-0.804,6.426-1.499,8.961-2.09c2.525-0.629,4.606-1.148,6.258-1.559c1.653-0.408,2.879-0.7,3.694-0.882&#xA;&#9;&#9;&#9;C623.251,408.124,623.655,408.053,623.665,408.087z"/>
	</g>
	<g>
		<path fill="#894F58" d="M617.834,365.171c0.011,0.034-0.384,0.188-1.203,0.467c-0.821,0.27-2.055,0.702-3.749,1.196&#xA;&#9;&#9;&#9;c-3.381,1.009-8.569,2.398-15.765,3.844c-7.196,1.441-16.41,2.853-27.765,4.055c-11.356,1.203-24.833,2.239-40.542,3.577&#xA;&#9;&#9;&#9;c-15.712,1.297-29.184,2.409-40.552,3.347c-11.373,0.904-20.631,1.705-27.954,2.17c-7.324,0.453-12.702,0.417-16.227,0.224&#xA;&#9;&#9;&#9;c-1.763-0.09-3.066-0.206-3.925-0.305c-0.86-0.099-1.279-0.166-1.276-0.202s0.428-0.038,1.291-0.007&#xA;&#9;&#9;&#9;c0.863,0.032,2.165,0.082,3.924,0.11c3.518,0.069,8.866-0.007,16.164-0.552c14.601-1.241,37.054-3.148,68.469-5.818&#xA;&#9;&#9;&#9;c15.709-1.337,29.191-2.345,40.529-3.494c11.339-1.147,20.534-2.48,27.725-3.824c7.19-1.35,12.388-2.626,15.795-3.513&#xA;&#9;&#9;&#9;c1.701-0.452,2.96-0.786,3.796-1.008C617.407,365.224,617.823,365.137,617.834,365.171z"/>
	</g>
	<g>
		<path fill="#894F58" d="M615.936,321.177c0.012,0.034-0.326,0.183-1.029,0.453c-0.703,0.27-1.77,0.66-3.217,1.175&#xA;&#9;&#9;&#9;c-1.449,0.508-3.268,1.171-5.499,1.908c-2.244,0.696-4.884,1.516-7.934,2.462c-3.063,0.903-6.564,1.837-10.486,2.918&#xA;&#9;&#9;&#9;c-1.975,0.486-4.058,0.999-6.251,1.539c-1.097,0.267-2.222,0.541-3.374,0.821c-1.158,0.254-2.344,0.515-3.559,0.781&#xA;&#9;&#9;&#9;c-9.705,2.168-21.291,4.368-34.89,6.338c-13.599,1.975-25.314,3.232-35.203,4.201c-9.89,0.974-17.963,1.625-24.325,2.124&#xA;&#9;&#9;&#9;c-6.363,0.485-11.016,0.813-14.081,0.996c-1.532,0.093-2.667,0.153-3.419,0.18c-0.752,0.027-1.123,0.022-1.125-0.013&#xA;&#9;&#9;&#9;c-0.003-0.036,0.362-0.1,1.109-0.195c0.747-0.094,1.876-0.219,3.403-0.374c3.057-0.288,7.7-0.726,14.051-1.324&#xA;&#9;&#9;&#9;c6.352-0.592,14.415-1.318,24.291-2.343c9.876-1.021,21.573-2.306,35.149-4.277c13.577-1.966,25.141-4.133,34.835-6.245&#xA;&#9;&#9;&#9;c1.213-0.259,2.398-0.512,3.555-0.759c1.151-0.272,2.275-0.538,3.371-0.797c2.192-0.521,4.274-1.016,6.249-1.486&#xA;&#9;&#9;&#9;c3.922-1.042,7.427-1.933,10.496-2.789c3.061-0.888,5.71-1.657,7.962-2.311c2.238-0.701,4.081-1.279,5.545-1.738&#xA;&#9;&#9;&#9;c1.465-0.455,2.552-0.784,3.277-0.99C615.563,321.227,615.924,321.144,615.936,321.177z"/>
	</g>
	<g>
		<path fill="#894F58" d="M455.733,296.417c-0.069-0.264,2.475-1.214,8.609-2.598c6.14-1.355,8.847-1.578,8.896-1.31&#xA;&#9;&#9;&#9;c0.055,0.294-2.556,0.972-8.671,2.321C458.459,296.209,455.808,296.706,455.733,296.417z"/>
	</g>
	<g>
		<path fill="#894F58" d="M447.066,282.647c-0.078-0.106,0.367-0.627,1.539-1.494c1.173-0.855,3.082-2.073,5.999-3.246&#xA;&#9;&#9;&#9;c2.926-1.149,5.151-1.574,6.591-1.757c1.447-0.173,2.129-0.1,2.145,0.031c0.019,0.154-0.627,0.338-2.008,0.69&#xA;&#9;&#9;&#9;c-1.377,0.362-3.504,0.885-6.344,1.999c-2.831,1.139-4.736,2.218-5.986,2.901C447.754,282.462,447.157,282.772,447.066,282.647z"/>
	</g>
	<g>
		<path fill="#894F58" d="M596.054,265.692c0.012,0.286-2.776,0.632-9.288,0.899c-6.513,0.267-9.319,0.15-9.331-0.136&#xA;&#9;&#9;&#9;s2.776-0.633,9.288-0.899C593.236,265.288,596.042,265.406,596.054,265.692z"/>
	</g>
	<g>
		<path fill="#E8E5DE" d="M527.149,215.501c-0.034-0.124,1.021-0.554,3.399-1.053c2.372-0.515,6.064-1.005,11.17-1.83&#xA;&#9;&#9;&#9;c2.55-0.426,4.714-0.877,6.515-1.334c0.448-0.12,0.876-0.235,1.284-0.344c0.405-0.115,0.781-0.248,1.143-0.36&#xA;&#9;&#9;&#9;c0.731-0.21,1.345-0.48,1.902-0.687c1.088-0.461,1.878-0.831,2.364-1.129c0.502-0.276,0.774-0.382,0.819-0.327&#xA;&#9;&#9;&#9;c0.045,0.056-0.14,0.269-0.589,0.659c-0.434,0.412-1.198,0.898-2.291,1.464c-0.556,0.257-1.181,0.578-1.919,0.83&#xA;&#9;&#9;&#9;c-0.366,0.133-0.75,0.287-1.161,0.42c-0.413,0.125-0.847,0.257-1.302,0.395c-1.827,0.518-4.022,1.005-6.595,1.435&#xA;&#9;&#9;&#9;c-5.15,0.831-8.836,1.204-11.219,1.53C528.287,215.481,527.189,215.654,527.149,215.501z"/>
	</g>
	
		<ellipse transform="matrix(0.8833 -0.4689 0.4689 0.8833 -23.9373 258.0514)" fill="#31353E" cx="506.295" cy="177.101" rx="2.57" ry="3.769"/>
	
		<ellipse transform="matrix(0.987 -0.161 0.161 0.987 -19.3228 89.4722)" fill="#31353E" cx="542.515" cy="163.986" rx="2.57" ry="3.769"/>
</g>
</svg>